<mxfile host="app.diagrams.net" modified="2023-03-31T15:15:53.843Z" agent="Mozilla/5.0 (Windows NT 10.0; Win64; x64) AppleWebKit/537.36 (KHTML, like Gecko) Chrome/111.0.0.0 Safari/537.36" version="21.1.2" etag="x1y4sIaUnHP6-X1szHYy" type="github">
  <diagram name="第 1 页" id="HjQGMSNYkq9setdqdHG7">
    <mxGraphModel>
      <root>
        <mxCell id="0" />
        <mxCell id="1" parent="0" />
      </root>
    </mxGraphModel>
  </diagram>
</mxfile>
